PathFileType	4	(X/Y/Z)	D:\TRACE\v60_Jaco2_6-2-23\BothDRS_Motion1_1-platform.trc
DataRate	CameraRate	NumFrames	NumMarkers	Units	OrigDataRate	OrigDataStartFrame	OrigNumFrames
100.00	100.00	      60	5	mm	100.00	6000	      6857
Frame#	Time	Left_Front			Right_Front			Left_Aft			Right_Aft			Post			
		X1	Y1	Z1	X2	Y2	Z2	X3	Y3	Z3	X4	Y4	Z4	X5	Y5	Z5	

6000	59.990	-750.69116	-6.47194	-642.55408	819.40594	-4.52107	-648.00452	-658.47113	17.58199	492.03036	783.53723	17.69340	501.39111	34.99883	1285.79272	-993.70947	
6001	60.000	-750.59973	-6.89802	-642.60834	819.45917	-4.87846	-648.13989	-658.49286	17.78372	491.89041	783.36951	17.90235	501.30072	35.11726	1285.21130	-994.74182	
6002	60.010	-750.52173	-7.11334	-642.65131	819.52252	-5.21320	-648.21002	-658.42908	17.87739	491.86658	783.35016	18.08685	501.15369	35.20585	1284.70142	-995.50134	
6003	60.020	-750.46771	-7.43831	-642.79047	819.45227	-5.46203	-648.20184	-658.40027	18.11909	491.92545	783.16156	18.26343	501.01593	35.32354	1284.32520	-996.65363	
6004	60.030	-750.59753	-7.53927	-642.84576	819.29779	-5.64228	-648.22980	-658.31165	18.30302	491.86621	784.11505	18.76078	501.07703	34.98910	1283.76953	-997.63666	
6005	60.040	-750.77997	-7.89897	-642.83820	819.15350	-5.89231	-648.29163	-658.56140	18.65169	491.87717	783.23285	18.66884	500.87827	35.01817	1283.07190	-998.67224	
6006	60.050	-751.13367	-8.34264	-643.11743	818.88525	-6.29053	-648.58350	-658.87830	18.97905	491.75021	783.20270	19.20038	500.85419	34.77335	1282.65662	-999.56500	
6007	60.060	-751.26544	-8.61532	-643.23737	818.68341	-6.71237	-648.63147	-659.20990	19.18866	491.67758	782.97321	19.49827	500.82767	34.24442	1282.22876	-1000.18976	
6008	60.070	-751.47955	-8.90966	-643.43280	818.41827	-7.13948	-648.50867	-659.67078	19.69162	491.28671	782.68628	19.67881	500.78769	34.07845	1281.83472	-1000.81281	
6009	60.080	-751.83594	-9.08555	-643.48657	818.11682	-7.54619	-648.62592	-659.92609	19.90117	491.29453	782.36371	19.83922	500.56113	33.85481	1281.24390	-1001.60864	
6010	60.090	-751.91919	-9.51372	-643.33850	817.94604	-7.70595	-648.67365	-660.14807	20.06818	491.23859	782.20264	20.10866	500.51108	33.67528	1280.66052	-1002.13611	
6011	60.100	-752.21875	-10.08926	-643.50140	817.65271	-8.09066	-648.78650	-660.30939	20.21909	491.11935	782.18597	20.53444	500.57291	33.69378	1280.01355	-1002.46881	
6012	60.110	-752.43530	-10.52122	-643.60620	817.48999	-8.47405	-648.91638	-660.47528	20.40250	491.08734	781.99756	20.76134	500.44687	33.46036	1279.44446	-1002.82330	
6013	60.120	-752.62170	-10.89437	-643.75385	817.23120	-8.79461	-649.01770	-660.68787	20.53312	491.02707	781.63220	21.01332	500.33038	33.14400	1278.81555	-1003.30518	
6014	60.130	-752.89026	-11.12486	-643.86792	816.92841	-9.08601	-649.16217	-660.96497	20.75007	490.98740	780.74316	20.92990	500.14542	32.55043	1278.49719	-1004.08417	
6015	60.140	-753.31982	-11.35199	-643.76965	816.65228	-9.26682	-649.08600	-661.24353	20.97575	491.00540	780.17816	21.07786	500.14142	32.44773	1278.07849	-1004.96680	
6016	60.150	-753.80127	-11.84485	-643.68719	816.24457	-9.58305	-648.99072	-661.59961	21.19193	490.95447	780.19348	21.46451	500.18793	31.85728	1277.69971	-1005.91992	
6017	60.160	-754.03479	-12.07163	-643.81921	815.77588	-9.97292	-649.10504	-662.21057	21.45175	490.88937	779.97363	21.81012	500.07016	31.39089	1276.93054	-1006.58575	
6018	60.170	-754.58228	-12.33021	-643.91064	815.09357	-10.44529	-649.32990	-662.61469	21.58998	490.77701	779.64539	21.96468	499.92648	31.17648	1276.62024	-1007.36743	
6019	60.180	-754.91565	-12.52188	-644.09064	814.68683	-10.65502	-649.34113	-662.98157	21.71168	490.71210	779.28680	22.18215	499.86404	30.55490	1276.19214	-1008.35785	
6020	60.190	-755.33069	-12.70630	-644.10559	814.37585	-10.81236	-649.40076	-663.32336	21.87399	490.62061	778.68103	22.31095	499.70193	30.31141	1275.87842	-1008.79980	
6021	60.200	-755.94897	-12.78144	-644.27606	814.13208	-11.00349	-649.38275	-663.80408	22.15029	490.53760	778.19867	22.46015	499.67126	29.77093	1275.18420	-1009.52734	
6022	60.210	-756.33124	-13.12565	-644.20361	813.76904	-11.44524	-649.40839	-664.05029	22.33039	490.44135	777.66443	22.71242	499.51205	29.03781	1274.79541	-1010.08905	
6023	60.220	-756.74048	-13.70470	-644.47485	813.26642	-12.12418	-649.57629	-664.53979	22.40637	490.37311	777.33136	23.07345	499.48264	28.75269	1274.33826	-1010.55103	
6024	60.230	-756.99084	-14.39610	-644.39746	812.65204	-12.49291	-649.69446	-665.13715	22.56269	490.23706	776.95673	23.34525	499.49411	28.60530	1274.01672	-1011.01373	
6025	60.240	-757.67383	-14.61278	-644.47711	812.29071	-12.58998	-649.66229	-665.83051	22.92648	490.03345	776.33606	23.41052	499.43488	27.90301	1273.58215	-1011.63043	
6026	60.250	-758.15656	-14.69506	-644.33179	811.78998	-12.68554	-649.50220	-666.17004	23.09958	489.95758	775.52576	23.34390	499.27066	27.34268	1273.09595	-1012.04822	
6027	60.260	-758.64954	-14.79069	-644.29755	811.17712	-12.93602	-649.56860	-666.40308	23.22035	490.00381	775.14825	23.63021	499.15475	26.97365	1272.66846	-1012.51038	
6028	60.270	-759.29761	-15.06583	-644.25098	810.79095	-13.29011	-649.71783	-666.85980	23.29786	489.99350	775.01678	24.05127	499.19653	26.37028	1272.49011	-1012.84332	
6029	60.280	-759.74768	-15.47481	-644.49188	810.41602	-13.61314	-649.85950	-667.57245	23.34011	489.87598	774.60956	24.28690	499.13101	25.68652	1271.89185	-1013.64825	
6030	60.290	-760.38745	-15.86142	-644.84357	809.90289	-13.92600	-649.97784	-668.16705	23.43482	489.80698	773.74323	24.35329	498.94720	25.38811	1271.36121	-1014.00409	
6031	60.300	-760.81812	-15.93923	-644.71576	808.94977	-14.10815	-650.07886	-668.60315	23.56829	489.78503	773.09918	24.36162	498.98676	24.76856	1270.99084	-1014.54932	
6032	60.310	-761.38525	-15.98456	-644.81207	808.31354	-14.31512	-649.97412	-669.53186	24.39805	489.79800	772.68042	24.66106	499.01990	24.27000	1270.66687	-1015.20807	
6033	60.320	-761.85602	-16.12000	-644.71924	807.82904	-14.48536	-649.91577	-670.16522	24.62121	489.67371	772.03467	24.91985	498.84424	23.11182	1270.38196	-1015.89478	
6034	60.330	-762.76727	-16.47638	-644.59924	807.37793	-14.67384	-649.94507	-670.86981	24.77472	489.69202	771.56134	24.99868	498.90570	22.82726	1270.05103	-1016.46753	
6035	60.340	-763.35394	-16.81036	-644.77332	806.68860	-15.06130	-650.23187	-671.91132	25.25816	489.86893	770.67114	25.05066	498.75659	21.94805	1269.70374	-1017.31299	
6036	60.350	-763.84216	-16.92195	-645.01215	806.05157	-15.36390	-650.33228	-672.35950	25.19411	489.80029	770.19739	25.30865	498.72839	21.74139	1269.43530	-1017.77136	
6037	60.360	-764.31549	-17.00813	-645.22070	805.46179	-15.44437	-650.13885	-673.00488	25.28322	489.66428	769.65308	25.44138	498.66800	21.18576	1269.08203	-1018.01880	
6038	60.370	-764.83569	-17.13456	-645.29858	804.81293	-15.76584	-650.09967	-673.80670	25.55111	489.59024	769.31604	25.63968	498.62598	20.76056	1268.87842	-1018.33539	
6039	60.380	-765.75525	-17.59374	-644.99237	804.13092	-15.86600	-650.23145	-674.63068	25.91240	489.64755	768.54120	25.89546	498.65988	19.87865	1268.36670	-1018.94092	
6040	60.390	-766.39056	-17.83524	-644.97485	803.58606	-16.05608	-650.19580	-675.25934	26.03107	489.47516	767.52191	25.87316	498.57388	19.12401	1268.01587	-1019.20880	
6041	60.400	-767.20148	-18.12415	-644.91339	802.78619	-16.42880	-650.42267	-675.76770	26.04834	489.49188	767.09625	26.02808	498.46783	18.48685	1267.70520	-1019.55908	
6042	60.410	-767.78076	-18.36109	-645.00098	802.14044	-16.51274	-650.47894	-676.41431	26.14872	489.49176	766.40839	26.06772	498.37354	17.93047	1267.42737	-1019.72589	
6043	60.420	-768.45306	-18.57152	-645.24792	801.37830	-16.69696	-650.42688	-677.13696	26.20610	489.49899	765.43097	26.24762	498.36215	17.28768	1267.18567	-1020.07886	
6044	60.430	-769.12915	-18.60500	-645.17725	800.75336	-16.87960	-650.49139	-677.80164	26.22770	489.49426	764.88226	26.40648	498.30621	16.17356	1267.00061	-1020.36493	
6045	60.440	-770.03949	-18.56762	-645.06940	799.98096	-16.94632	-650.28583	-678.37433	26.37865	489.44803	764.36694	26.57904	498.27481	15.40051	1266.64917	-1020.67688	
6046	60.450	-770.81183	-18.92759	-644.98834	799.35010	-17.01162	-650.22931	-679.19873	26.61173	489.31860	763.30206	26.61412	498.33438	14.69456	1266.41846	-1021.04858	
6047	60.460	-771.32574	-19.11458	-645.15417	798.33215	-17.22713	-650.58618	-680.08008	26.78629	489.28641	762.65839	26.69136	498.26483	14.34515	1266.25781	-1021.27124	
6048	60.470	-772.17090	-19.19822	-645.33716	797.80377	-17.43104	-650.63416	-680.75537	26.79072	489.15784	762.02405	26.80978	498.22882	13.48723	1265.95667	-1021.58142	
6049	60.480	-772.83118	-19.26741	-645.41125	797.13678	-17.51849	-650.51160	-681.29510	26.61825	489.18335	760.80316	26.78536	498.18521	12.33212	1265.83386	-1021.80908	
6050	60.490	-773.89160	-19.35829	-645.26135	795.99225	-17.56646	-650.51917	-682.34973	26.97793	489.23267	760.27130	26.92462	498.30386	11.50635	1265.69727	-1022.19507	
6051	60.500	-774.60724	-19.56838	-645.13507	795.25671	-17.69946	-650.49274	-683.08160	27.16964	489.24600	759.64874	27.05696	498.10303	10.94367	1265.61255	-1022.42786	
6052	60.510	-775.33862	-19.66305	-645.28253	794.51282	-17.81559	-650.63965	-683.75354	27.20487	489.17587	758.66638	26.97702	498.01019	10.09812	1265.29761	-1022.91730	
6053	60.520	-775.97394	-19.61069	-645.38934	794.03186	-17.95769	-650.68042	-684.66168	27.26737	488.88657	757.65399	27.09052	498.15448	9.47699	1264.97998	-1023.14209	
6054	60.530	-776.84711	-19.73804	-645.45758	793.02979	-18.14688	-650.63214	-685.52197	27.12859	488.93597	757.23926	27.30546	499.75250	8.60170	1264.85217	-1023.22229	
6055	60.540	-777.78784	-19.89901	-645.20544	792.05713	-18.32020	-650.68030	-685.99890	27.13859	488.93265	757.07758	27.54694	499.39624	7.95793	1264.67700	-1023.46893	
6056	60.550	-778.54089	-19.93783	-645.31708	791.36853	-18.03471	-650.73065	-686.92365	27.09529	488.94891	756.00732	27.60497	498.98550	7.36138	1264.72534	-1023.67194	
6057	60.560	-779.32025	-19.85945	-645.29907	790.65491	-17.78490	-650.71448	-687.97510	27.21459	489.01294	754.70361	27.53583	499.04425	6.49154	1264.58582	-1023.84692	
6058	60.570	-780.07013	-19.83752	-645.60016	789.45807	-17.91089	-650.65009	-688.76099	27.55126	488.99203	754.01526	27.49220	498.86847	5.21612	1264.45129	-1023.78485	
6059	60.580	-781.28168	-20.21000	-645.33899	788.71802	-18.35680	-650.50134	-689.74908	27.77338	489.08798	753.07336	27.39068	498.56113	4.47206	1264.19800	-1023.78613	
